<svg xmlns="http://www.w3.org/2000/svg" version="1.1" xmlns:xlink="http://www.w3.org/1999/xlink" width="1000" height="1000"><metadata><rdf:RDF xmlns:rdf="http://www.w3.org/1999/02/22-rdf-syntax-ns#" xmlns:dc="http://purl.org/dc/elements/1.1/"><rdf:Description><dc:creator>RealFaviconGenerator</dc:creator><dc:source>https://realfavicongenerator.net</dc:source></rdf:Description></rdf:RDF></metadata><g clip-path="url(#SvgjsClipPath1193)"><rect width="1000" height="1000" fill="#ffffff"></rect><g transform="matrix(0.6666666666666666,0,0,0.6666666666666666,0,0)"><svg xmlns="http://www.w3.org/2000/svg" version="1.1" xmlns:xlink="http://www.w3.org/1999/xlink" width="1500px" height="1500px" xml:space="preserve" xmlns:serif="http://www.serif.com/" style="fill-rule:evenodd;clip-rule:evenodd;stroke-linejoin:round;stroke-miterlimit:2;"><g transform="matrix(4.488381,0,0,4.488381,-2704.429633,-4546.68553)">
        <path d="M603.01,1129.343L603.01,1077.187L674.715,1077.187L675.406,1078.686C702.479,1137.428 735.077,1194.689 771.795,1248.017L713.944,1319.285C672.86,1258.859 635.542,1194.952 603.01,1129.343ZM691.686,1346.705L603.01,1346.705L603.01,1169.027C603.556,1182.187 604.699,1195.063 606.388,1207.659C632.67,1255.318 661.349,1301.757 692.029,1346.283L691.686,1346.705ZM936.735,1179.126L936.735,1283.838C897.449,1271.473 858.646,1256.853 821.041,1240.24L886.74,1159.306C903.04,1166.627 919.772,1173.258 936.735,1179.126ZM603.01,1045.333L603.01,1012.98L936.735,1012.98L936.735,1143.732C922.568,1138.51 908.608,1132.728 894.989,1126.435C877.802,1101.373 862.445,1074.582 849.505,1047.085L849.678,1045.333L603.01,1045.333ZM756.332,1346.705C751.002,1344.362 745.688,1341.991 740.392,1339.593L799.292,1267.033C843.771,1287.112 889.962,1304.483 936.735,1318.732L936.735,1346.705L756.332,1346.705ZM711.515,1077.187L827.123,1077.187C837.551,1097.736 849.224,1117.804 861.916,1136.997L793.722,1221.006C762.898,1175.363 735.191,1126.892 711.515,1077.187Z" style="fill:rgb(1,58,99);"></path>
    </g></svg></g></g><defs><clipPath id="SvgjsClipPath1193"><rect width="1000" height="1000" x="0" y="0" rx="200" ry="200"></rect></clipPath></defs></svg>