<?xml version="1.0" encoding="UTF-8" standalone="no"?>
<!DOCTYPE svg PUBLIC "-//W3C//DTD SVG 1.1//EN" "http://www.w3.org/Graphics/SVG/1.1/DTD/svg11.dtd">
<svg width="100%" height="100%" viewBox="0 0 4588 1570" version="1.1" xmlns="http://www.w3.org/2000/svg" xmlns:xlink="http://www.w3.org/1999/xlink" xml:space="preserve" xmlns:serif="http://www.serif.com/" style="fill-rule:evenodd;clip-rule:evenodd;stroke-linejoin:round;stroke-miterlimit:2;">
    <g id="Logo" transform="matrix(1,0,0,1,-6331.623725,-281.873203)">
        <rect x="6331.624" y="281.873" width="4587.86" height="1569.67" style="fill:none;"/>
        <g transform="matrix(1,0,0,1,5986.623725,18.873203)">
            <path d="M1436.333,548.667L1436.333,582L1436.333,1146C1436.333,1299.254 1365.037,1421.574 1278.699,1512.85C1152.164,1646.62 993.936,1712.676 993.936,1712.676L981.111,1718.039L968.276,1712.701C968.276,1712.701 813.616,1648.507 689.925,1516.08C605.668,1425.872 536.008,1304.484 535.973,1151.229C535.923,936.632 531.669,582.4 531.669,582.4L531.264,548.667L1436.333,548.667ZM1369.667,978.667L1369.667,615.333L1013.833,615.333L1013.833,978.667L1369.667,978.667ZM947.167,615.333L598.72,615.333C599.46,681.234 601.082,833.368 601.99,978.667L947.167,978.667L947.167,615.333ZM1192.23,1504.307C1205.098,1492.59 1217.847,1480.167 1230.266,1467.037C1305.947,1387.029 1369.666,1280.336 1369.667,1146L1369.667,1045.333L1014.455,1045.333C1014.657,1081.66 1015.042,1154.129 1015.072,1184.459C1015.236,1350.969 1161.069,1478.876 1192.23,1504.307Z" style="fill:#131d77;"/>
        </g>
        <g transform="matrix(0.757963,-0.273205,0.273205,0.757963,5850.47816,632.581117)">
            <path d="M855.146,1659.231L879.192,1592.519C819.977,1550.739 762.121,1506.171 706.194,1459.295C690.012,1431.047 674.56,1400.73 660.802,1368.669C659.953,1366.69 659.11,1364.703 658.273,1362.71C733.025,1430.345 812.038,1493.921 893.751,1552.127L931.418,1447.625C843.058,1385.056 758.647,1314.473 681.372,1238.552L626.724,1271.532C622.957,1257.652 619.609,1243.546 616.744,1229.233L658.682,1203.924C641.599,1139.023 627.657,1072.729 617.027,1006.021C621.844,983.711 628.244,961.196 636.406,938.535C639.516,929.901 642.69,921.071 645.92,912.069C656.283,1002.73 673.003,1093.426 695.632,1181.624L793.176,1122.758C772.747,1045.037 758.784,964.458 751.896,884.475L751.72,882.434L667.383,852.035C671.744,839.798 676.167,827.366 680.636,814.787L969.417,918.877C969.103,919.534 968.789,920.192 968.477,920.85C972.014,958.402 978.67,996.146 988.189,1032.643C1005.035,1049.267 1022.87,1065.159 1041.418,1080.088C1035.66,1096.265 1030.518,1110.678 1026.739,1121.205C1005.118,1104.473 984.321,1086.484 964.723,1067.552L853.95,1134.403C899.8,1178.153 949.102,1219.09 1000.471,1256.05L1000.679,1255.471C999.076,1291.763 1001.417,1327.468 1006.374,1361.682L985.334,1420.053C996.206,1420.853 1007.097,1421.564 1018.004,1422.186C1021.448,1436.64 1025.26,1450.68 1029.317,1464.223C1009.754,1463.241 990.234,1461.977 970.78,1460.431L933.183,1564.738C978.47,1568.222 1024.032,1570.509 1069.68,1571.597C1076.969,1587.678 1083.92,1601.728 1089.988,1613.378C1032.663,1612.473 975.425,1609.709 918.639,1605.088L894.461,1672.167C884.88,1673.339 876.75,1674.187 870.288,1674.791C866.116,1670.623 861.013,1665.417 855.146,1659.231ZM717.967,1216.467C788.848,1285.356 865.694,1349.639 945.987,1407.206L985.9,1296.474C926.478,1254.477 869.606,1207.272 817.279,1156.534L717.967,1216.467ZM794.687,897.921C801.413,965.923 813.364,1034.18 830.146,1100.447L945.127,1031.056C938.386,1003.304 933.203,974.96 929.675,946.577L794.687,897.921Z" style="fill:#fff;"/>
        </g>
        <g transform="matrix(1.199849,0,0,1.199849,5906.28003,622.947036)">
            <path d="M731.342,79.551C721.088,79.551 711.933,81.407 703.876,85.118C695.819,88.828 689.008,94.175 683.441,101.158C677.875,108.14 673.627,116.587 670.697,126.499C667.768,136.411 666.303,147.569 666.303,159.971C666.303,176.573 668.646,190.855 673.334,202.818C678.021,214.781 685.15,223.96 694.721,230.357C704.291,236.753 716.4,239.951 731.049,239.951C740.131,239.951 748.969,239.073 757.563,237.315C766.156,235.557 775.043,233.164 784.223,230.137L784.223,260.02C775.531,263.438 766.742,265.928 757.855,267.491C748.969,269.053 738.715,269.834 727.094,269.834C705.219,269.834 687.079,265.293 672.675,256.211C658.271,247.129 647.528,234.336 640.448,217.832C633.368,201.328 629.828,181.993 629.828,159.825C629.828,143.614 632.074,128.77 636.566,115.293C641.059,101.817 647.602,90.171 656.195,80.357C664.789,70.542 675.409,62.974 688.056,57.652C700.702,52.329 715.18,49.668 731.488,49.668C742.23,49.668 752.802,50.865 763.202,53.257C773.603,55.65 783.246,59.043 792.133,63.438L779.828,92.442C772.406,88.926 764.643,85.899 756.537,83.36C748.432,80.821 740.033,79.551 731.342,79.551Z" style="fill:#131d77;fill-rule:nonzero;"/>
        </g>
        <g transform="matrix(1.199849,0,0,1.199849,6327.28003,619.947036)">
            <path d="M731.342,79.551C721.088,79.551 711.933,81.407 703.876,85.118C695.819,88.828 689.008,94.175 683.441,101.158C677.875,108.14 673.627,116.587 670.697,126.499C667.768,136.411 666.303,147.569 666.303,159.971C666.303,176.573 668.646,190.855 673.334,202.818C678.021,214.781 685.15,223.96 694.721,230.357C704.291,236.753 716.4,239.951 731.049,239.951C740.131,239.951 748.969,239.073 757.563,237.315C766.156,235.557 775.043,233.164 784.223,230.137L784.223,260.02C775.531,263.438 766.742,265.928 757.855,267.491C748.969,269.053 738.715,269.834 727.094,269.834C705.219,269.834 687.079,265.293 672.675,256.211C658.271,247.129 647.528,234.336 640.448,217.832C633.368,201.328 629.828,181.993 629.828,159.825C629.828,143.614 632.074,128.77 636.566,115.293C641.059,101.817 647.602,90.171 656.195,80.357C664.789,70.542 675.409,62.974 688.056,57.652C700.702,52.329 715.18,49.668 731.488,49.668C742.23,49.668 752.802,50.865 763.202,53.257C773.603,55.65 783.246,59.043 792.133,63.438L779.828,92.442C772.406,88.926 764.643,85.899 756.537,83.36C748.432,80.821 740.033,79.551 731.342,79.551Z" style="fill:#131d77;fill-rule:nonzero;"/>
        </g>
        <g transform="matrix(1.199849,0,0,1.199849,6348.28003,1054.947036)">
            <path d="M763.715,208.604C763.715,221.299 760.614,232.237 754.413,241.416C748.212,250.596 739.325,257.627 727.753,262.51C716.181,267.393 702.387,269.834 686.371,269.834C678.559,269.834 671.088,269.395 663.959,268.516C656.83,267.637 650.116,266.343 643.817,264.634C637.519,262.925 631.781,260.85 626.605,258.409L626.605,225.303C635.297,229.112 645.014,232.554 655.756,235.63C666.498,238.706 677.436,240.244 688.568,240.244C697.65,240.244 705.194,239.048 711.2,236.656C717.206,234.263 721.674,230.845 724.604,226.402C727.533,221.958 728.998,216.758 728.998,210.801C728.998,204.453 727.289,199.082 723.871,194.688C720.453,190.293 715.302,186.265 708.417,182.603C701.532,178.941 692.914,175.01 682.563,170.811C675.531,167.979 668.817,164.756 662.421,161.143C656.024,157.53 650.336,153.282 645.355,148.399C640.375,143.516 636.444,137.73 633.563,131.04C630.683,124.351 629.242,116.465 629.242,107.383C629.242,95.274 632.147,84.922 637.958,76.328C643.769,67.735 651.972,61.143 662.567,56.553C673.163,51.963 685.541,49.668 699.701,49.668C710.932,49.668 721.503,50.84 731.415,53.184C741.327,55.528 751.068,58.848 760.639,63.145L749.506,91.416C740.717,87.803 732.196,84.922 723.944,82.774C715.692,80.625 707.27,79.551 698.676,79.551C691.254,79.551 684.955,80.674 679.779,82.92C674.604,85.166 670.673,88.316 667.987,92.368C665.302,96.421 663.959,101.231 663.959,106.797C663.959,113.047 665.497,118.296 668.573,122.544C671.649,126.792 676.435,130.674 682.929,134.19C689.423,137.705 697.797,141.612 708.051,145.909C719.867,150.791 729.901,155.918 738.153,161.289C746.405,166.66 752.729,173.081 757.123,180.552C761.518,188.023 763.715,197.373 763.715,208.604Z" style="fill:#131d77;fill-rule:nonzero;"/>
        </g>
        <g transform="matrix(0.716259,0,0,0.716259,1885.064729,-740.705385)">
            <path d="M8216.787,2421.287L8182.338,2421.287L8042.258,2205.455L8040.852,2205.455C8041.203,2211.196 8041.613,2217.729 8042.082,2225.052C8042.551,2232.375 8042.931,2240.167 8043.224,2248.428C8043.517,2256.689 8043.664,2265.096 8043.664,2273.649L8043.664,2421.287L8015.894,2421.287L8015.894,2164.327L8050.167,2164.327L8189.72,2379.456L8190.95,2379.456C8190.716,2375.355 8190.423,2369.526 8190.071,2361.968C8189.72,2354.411 8189.397,2346.267 8189.105,2337.538C8188.812,2328.808 8188.665,2320.694 8188.665,2313.195L8188.665,2164.327L8216.787,2164.327L8216.787,2421.287Z" style="fill:#131d77;fill-rule:nonzero;"/>
            <path d="M8356.691,2225.14C8373.095,2225.14 8387.156,2228.772 8398.873,2236.037C8410.59,2243.302 8419.554,2253.466 8425.764,2266.531C8431.974,2279.596 8435.079,2294.858 8435.079,2312.316L8435.079,2330.419L8302.03,2330.419C8302.381,2353.034 8308.006,2370.258 8318.903,2382.093C8329.8,2393.927 8345.149,2399.844 8364.952,2399.844C8377.138,2399.844 8387.917,2398.731 8397.291,2396.505C8406.665,2394.279 8416.39,2390.998 8426.467,2386.662L8426.467,2412.323C8416.742,2416.659 8407.104,2419.822 8397.555,2421.814C8388.005,2423.806 8376.727,2424.802 8363.721,2424.802C8345.208,2424.802 8329.067,2421.023 8315.3,2413.466C8301.532,2405.908 8290.84,2394.806 8283.224,2380.159C8275.607,2365.513 8271.799,2347.585 8271.799,2326.377C8271.799,2305.637 8275.285,2287.681 8282.257,2272.507C8289.229,2257.333 8299.071,2245.645 8311.784,2237.443C8324.498,2229.241 8339.466,2225.14 8356.691,2225.14ZM8356.339,2249.043C8340.755,2249.043 8328.335,2254.14 8319.078,2264.334C8309.822,2274.528 8304.315,2288.765 8302.557,2307.044L8404.497,2307.044C8404.38,2295.561 8402.593,2285.454 8399.137,2276.725C8395.68,2267.996 8390.437,2261.2 8383.406,2256.337C8376.376,2251.474 8367.354,2249.043 8356.339,2249.043Z" style="fill:#131d77;fill-rule:nonzero;"/>
            <path d="M8553.19,2424.802C8528.818,2424.802 8509.513,2416.483 8495.277,2399.844C8481.04,2383.206 8473.922,2358.482 8473.922,2325.674C8473.922,2292.514 8481.187,2267.468 8495.716,2250.537C8510.246,2233.605 8529.579,2225.14 8553.717,2225.14C8563.911,2225.14 8572.816,2226.487 8580.432,2229.182C8588.049,2231.877 8594.61,2235.48 8600.117,2239.991C8605.624,2244.503 8610.253,2249.629 8614.002,2255.37L8616.111,2255.37C8615.643,2251.738 8615.174,2246.758 8614.705,2240.431C8614.237,2234.103 8614.002,2228.948 8614.002,2224.964L8614.002,2147.806L8643.178,2147.806L8643.178,2421.287L8619.627,2421.287L8615.233,2393.869L8614.002,2393.869C8610.37,2399.61 8605.771,2404.824 8600.205,2409.511C8594.639,2414.198 8588.019,2417.918 8580.344,2420.672C8572.67,2423.425 8563.618,2424.802 8553.19,2424.802ZM8557.759,2400.547C8578.382,2400.547 8592.97,2394.689 8601.523,2382.971C8610.077,2371.254 8614.354,2353.854 8614.354,2330.771L8614.354,2325.498C8614.354,2301.009 8610.282,2282.203 8602.139,2269.08C8593.995,2255.956 8579.202,2249.395 8557.759,2249.395C8539.832,2249.395 8526.416,2256.278 8517.511,2270.046C8508.605,2283.814 8504.153,2302.591 8504.153,2326.377C8504.153,2350.046 8508.576,2368.325 8517.423,2381.214C8526.269,2394.103 8539.715,2400.547 8557.759,2400.547Z" style="fill:#131d77;fill-rule:nonzero;"/>
            <path d="M8779.04,2225.14C8795.444,2225.14 8809.505,2228.772 8821.222,2236.037C8832.94,2243.302 8841.903,2253.466 8848.113,2266.531C8854.324,2279.596 8857.429,2294.858 8857.429,2312.316L8857.429,2330.419L8724.379,2330.419C8724.731,2353.034 8730.355,2370.258 8741.252,2382.093C8752.149,2393.927 8767.499,2399.844 8787.301,2399.844C8799.487,2399.844 8810.267,2398.731 8819.641,2396.505C8829.014,2394.279 8838.74,2390.998 8848.817,2386.662L8848.817,2412.323C8839.091,2416.659 8829.454,2419.822 8819.904,2421.814C8810.355,2423.806 8799.077,2424.802 8786.071,2424.802C8767.557,2424.802 8751.417,2421.023 8737.649,2413.466C8723.881,2405.908 8713.189,2394.806 8705.573,2380.159C8697.957,2365.513 8694.148,2347.585 8694.148,2326.377C8694.148,2305.637 8697.634,2287.681 8704.606,2272.507C8711.578,2257.333 8721.42,2245.645 8734.134,2237.443C8746.847,2229.241 8761.816,2225.14 8779.04,2225.14ZM8778.689,2249.043C8763.105,2249.043 8750.684,2254.14 8741.428,2264.334C8732.171,2274.528 8726.664,2288.765 8724.906,2307.044L8826.847,2307.044C8826.729,2295.561 8824.943,2285.454 8821.486,2276.725C8818.029,2267.996 8812.786,2261.2 8805.756,2256.337C8798.725,2251.474 8789.703,2249.043 8778.689,2249.043Z" style="fill:#131d77;fill-rule:nonzero;"/>
            <path d="M8994.521,2225.14C8998.388,2225.14 9002.43,2225.345 9006.648,2225.755C9010.866,2226.165 9014.616,2226.722 9017.897,2227.425L9014.206,2254.492C9011.042,2253.671 9007.527,2253.027 9003.66,2252.558C8999.794,2252.089 8996.161,2251.855 8992.763,2251.855C8985.03,2251.855 8977.736,2253.408 8970.881,2256.513C8964.027,2259.618 8958.022,2264.07 8952.866,2269.87C8947.71,2275.67 8943.668,2282.642 8940.739,2290.786C8937.809,2298.929 8936.345,2307.981 8936.345,2317.941L8936.345,2421.287L8906.993,2421.287L8906.993,2228.655L8931.248,2228.655L8934.411,2264.158L8935.642,2264.158C8939.625,2257.011 8944.43,2250.478 8950.054,2244.561C8955.678,2238.644 8962.21,2233.928 8969.651,2230.413C8977.091,2226.897 8985.381,2225.14 8994.521,2225.14Z" style="fill:#131d77;fill-rule:nonzero;"/>
            <rect x="9054.103" y="2147.806" width="29.352" height="273.481" style="fill:#131d77;fill-rule:nonzero;"/>
            <path d="M9217.032,2225.491C9239.998,2225.491 9257.046,2230.647 9268.178,2240.958C9279.309,2251.269 9284.875,2267.732 9284.875,2290.346L9284.875,2421.287L9263.608,2421.287L9257.984,2392.814L9256.578,2392.814C9251.188,2399.844 9245.564,2405.732 9239.705,2410.478C9233.846,2415.223 9227.08,2418.797 9219.405,2421.199C9211.73,2423.601 9202.327,2424.802 9191.195,2424.802C9179.478,2424.802 9169.079,2422.752 9159.998,2418.651C9150.917,2414.55 9143.77,2408.339 9138.555,2400.02C9133.341,2391.701 9130.734,2381.155 9130.734,2368.383C9130.734,2349.167 9138.35,2334.403 9153.583,2324.092C9168.815,2313.781 9192.016,2308.157 9223.184,2307.219L9256.402,2305.813L9256.402,2294.037C9256.402,2277.399 9252.828,2265.74 9245.681,2259.061C9238.533,2252.382 9228.456,2249.043 9215.45,2249.043C9205.373,2249.043 9195.765,2250.508 9186.626,2253.437C9177.486,2256.366 9168.815,2259.823 9160.613,2263.807L9151.65,2241.661C9160.32,2237.209 9170.28,2233.4 9181.529,2230.237C9192.777,2227.073 9204.612,2225.491 9217.032,2225.491ZM9256.05,2326.377L9226.699,2327.607C9202.678,2328.545 9185.747,2332.47 9175.904,2339.383C9166.062,2346.296 9161.141,2356.08 9161.141,2368.735C9161.141,2379.749 9164.48,2387.893 9171.159,2393.165C9177.838,2398.438 9186.684,2401.075 9197.698,2401.075C9214.806,2401.075 9228.808,2396.329 9239.705,2386.838C9250.602,2377.347 9256.05,2363.111 9256.05,2344.129L9256.05,2326.377Z" style="fill:#131d77;fill-rule:nonzero;"/>
            <path d="M9436.204,2225.14C9459.052,2225.14 9476.335,2230.735 9488.053,2241.925C9499.77,2253.115 9505.629,2271.071 9505.629,2295.795L9505.629,2421.287L9476.804,2421.287L9476.804,2297.728C9476.804,2281.676 9473.142,2269.665 9465.819,2261.698C9458.496,2253.73 9447.276,2249.746 9432.161,2249.746C9410.836,2249.746 9395.838,2255.78 9387.167,2267.849C9378.496,2279.918 9374.161,2297.435 9374.161,2320.401L9374.161,2421.287L9344.985,2421.287L9344.985,2228.655L9368.536,2228.655L9372.93,2256.425L9374.512,2256.425C9378.613,2249.629 9383.827,2243.917 9390.155,2239.288C9396.482,2234.66 9403.571,2231.145 9411.422,2228.743C9419.272,2226.341 9427.533,2225.14 9436.204,2225.14Z" style="fill:#131d77;fill-rule:nonzero;"/>
            <path d="M9634.284,2424.802C9609.912,2424.802 9590.608,2416.483 9576.372,2399.844C9562.135,2383.206 9555.017,2358.482 9555.017,2325.674C9555.017,2292.514 9562.282,2267.468 9576.811,2250.537C9591.34,2233.605 9610.674,2225.14 9634.811,2225.14C9645.006,2225.14 9653.911,2226.487 9661.527,2229.182C9669.143,2231.877 9675.705,2235.48 9681.212,2239.991C9686.719,2244.503 9691.347,2249.629 9695.097,2255.37L9697.206,2255.37C9696.737,2251.738 9696.269,2246.758 9695.8,2240.431C9695.331,2234.103 9695.097,2228.948 9695.097,2224.964L9695.097,2147.806L9724.273,2147.806L9724.273,2421.287L9700.721,2421.287L9696.327,2393.869L9695.097,2393.869C9691.465,2399.61 9686.865,2404.824 9681.3,2409.511C9675.734,2414.198 9669.114,2417.918 9661.439,2420.672C9653.764,2423.425 9644.713,2424.802 9634.284,2424.802ZM9638.854,2400.547C9659.476,2400.547 9674.064,2394.689 9682.618,2382.971C9691.172,2371.254 9695.448,2353.854 9695.448,2330.771L9695.448,2325.498C9695.448,2301.009 9691.377,2282.203 9683.233,2269.08C9675.09,2255.956 9660.297,2249.395 9638.854,2249.395C9620.927,2249.395 9607.51,2256.278 9598.605,2270.046C9589.7,2283.814 9585.247,2302.591 9585.247,2326.377C9585.247,2350.046 9589.671,2368.325 9598.517,2381.214C9607.364,2394.103 9620.809,2400.547 9638.854,2400.547Z" style="fill:#131d77;fill-rule:nonzero;"/>
            <path d="M9910.578,2368.559C9910.578,2380.862 9907.502,2391.203 9901.35,2399.581C9895.199,2407.959 9886.411,2414.257 9874.986,2418.475C9863.562,2422.693 9849.941,2424.802 9834.122,2424.802C9820.648,2424.802 9808.989,2423.748 9799.146,2421.638C9789.304,2419.529 9780.692,2416.541 9773.31,2412.675L9773.31,2385.784C9781.16,2389.65 9790.534,2393.165 9801.431,2396.329C9812.328,2399.493 9823.46,2401.075 9834.825,2401.075C9851.464,2401.075 9863.533,2398.38 9871.032,2392.99C9878.531,2387.6 9882.28,2380.276 9882.28,2371.02C9882.28,2365.747 9880.786,2361.089 9877.799,2357.047C9874.811,2353.005 9869.801,2349.079 9862.771,2345.271C9855.741,2341.463 9846.015,2337.274 9833.595,2332.704C9821.292,2328.017 9810.659,2323.36 9801.695,2318.731C9792.731,2314.103 9785.818,2308.45 9780.955,2301.771C9776.093,2295.092 9773.661,2286.421 9773.661,2275.758C9773.661,2259.471 9780.252,2246.963 9793.434,2238.234C9806.616,2229.504 9823.928,2225.14 9845.371,2225.14C9856.971,2225.14 9867.839,2226.282 9877.974,2228.567C9888.11,2230.852 9897.571,2233.928 9906.359,2237.794L9896.517,2261.17C9888.549,2257.772 9880.054,2254.902 9871.032,2252.558C9862.009,2250.215 9852.811,2249.043 9843.438,2249.043C9829.963,2249.043 9819.622,2251.269 9812.416,2255.722C9805.21,2260.174 9801.607,2266.267 9801.607,2274.001C9801.607,2279.977 9803.277,2284.898 9806.616,2288.765C9809.955,2292.631 9815.316,2296.264 9822.698,2299.662C9830.08,2303.06 9839.805,2307.044 9851.874,2311.613C9863.943,2316.066 9874.371,2320.665 9883.159,2325.41C9891.947,2330.156 9898.714,2335.897 9903.459,2342.635C9908.205,2349.372 9910.578,2358.014 9910.578,2368.559Z" style="fill:#131d77;fill-rule:nonzero;"/>
            <path d="M10165.253,2187C10151.075,2187 10138.332,2189.431 10127.025,2194.294C10115.718,2199.157 10106.11,2206.187 10098.201,2215.385C10090.291,2224.583 10084.228,2235.685 10080.009,2248.691C10075.791,2261.698 10073.682,2276.344 10073.682,2292.631C10073.682,2314.191 10077.051,2332.909 10083.788,2348.786C10090.526,2364.663 10100.603,2376.937 10114.019,2385.608C10127.435,2394.279 10144.22,2398.614 10164.374,2398.614C10175.857,2398.614 10186.666,2397.647 10196.801,2395.714C10206.937,2393.781 10216.809,2391.349 10226.417,2388.42L10226.417,2414.432C10217.043,2417.948 10207.2,2420.555 10196.889,2422.254C10186.578,2423.953 10174.334,2424.802 10160.156,2424.802C10134.026,2424.802 10112.203,2419.383 10094.685,2408.544C10077.168,2397.706 10064.045,2382.386 10055.315,2362.583C10046.586,2342.781 10042.221,2319.405 10042.221,2292.455C10042.221,2273.005 10044.945,2255.224 10050.394,2239.113C10055.843,2223.001 10063.81,2209.087 10074.297,2197.37C10084.784,2185.653 10097.673,2176.601 10112.964,2170.215C10128.255,2163.829 10145.802,2160.636 10165.604,2160.636C10178.61,2160.636 10191.148,2161.925 10203.217,2164.503C10215.285,2167.081 10226.182,2170.772 10235.908,2175.576L10223.956,2200.885C10215.754,2197.135 10206.761,2193.884 10196.977,2191.13C10187.193,2188.377 10176.618,2187 10165.253,2187Z" style="fill:#131d77;fill-rule:nonzero;"/>
            <path d="M10351.909,2225.14C10368.313,2225.14 10382.374,2228.772 10394.091,2236.037C10405.808,2243.302 10414.772,2253.466 10420.982,2266.531C10427.192,2279.596 10430.297,2294.858 10430.297,2312.316L10430.297,2330.419L10297.248,2330.419C10297.599,2353.034 10303.224,2370.258 10314.121,2382.093C10325.018,2393.927 10340.367,2399.844 10360.17,2399.844C10372.356,2399.844 10383.135,2398.731 10392.509,2396.505C10401.883,2394.279 10411.608,2390.998 10421.685,2386.662L10421.685,2412.323C10411.96,2416.659 10402.322,2419.822 10392.773,2421.814C10383.223,2423.806 10371.945,2424.802 10358.939,2424.802C10340.426,2424.802 10324.285,2421.023 10310.518,2413.466C10296.75,2405.908 10286.058,2394.806 10278.442,2380.159C10270.825,2365.513 10267.017,2347.585 10267.017,2326.377C10267.017,2305.637 10270.503,2287.681 10277.475,2272.507C10284.447,2257.333 10294.289,2245.645 10307.002,2237.443C10319.716,2229.241 10334.684,2225.14 10351.909,2225.14ZM10351.557,2249.043C10335.973,2249.043 10323.553,2254.14 10314.296,2264.334C10305.04,2274.528 10299.533,2288.765 10297.775,2307.044L10399.715,2307.044C10399.598,2295.561 10397.811,2285.454 10394.355,2276.725C10390.898,2267.996 10385.655,2261.2 10378.624,2256.337C10371.594,2251.474 10362.572,2249.043 10351.557,2249.043Z" style="fill:#131d77;fill-rule:nonzero;"/>
            <path d="M10571.081,2225.14C10593.929,2225.14 10611.212,2230.735 10622.929,2241.925C10634.647,2253.115 10640.505,2271.071 10640.505,2295.795L10640.505,2421.287L10611.681,2421.287L10611.681,2297.728C10611.681,2281.676 10608.019,2269.665 10600.696,2261.698C10593.373,2253.73 10582.153,2249.746 10567.038,2249.746C10545.713,2249.746 10530.715,2255.78 10522.044,2267.849C10513.373,2279.918 10509.038,2297.435 10509.038,2320.401L10509.038,2421.287L10479.862,2421.287L10479.862,2228.655L10503.413,2228.655L10507.807,2256.425L10509.389,2256.425C10513.49,2249.629 10518.704,2243.917 10525.032,2239.288C10531.359,2234.66 10538.448,2231.145 10546.298,2228.743C10554.149,2226.341 10562.41,2225.14 10571.081,2225.14Z" style="fill:#131d77;fill-rule:nonzero;"/>
            <path d="M10762.834,2400.899C10767.638,2400.899 10772.559,2400.489 10777.598,2399.669C10782.636,2398.848 10786.737,2397.852 10789.901,2396.681L10789.901,2419.354C10786.503,2420.877 10781.786,2422.166 10775.752,2423.22C10769.718,2424.275 10763.83,2424.802 10758.088,2424.802C10747.894,2424.802 10738.638,2423.015 10730.318,2419.441C10721.999,2415.868 10715.349,2409.804 10710.37,2401.25C10705.39,2392.697 10702.9,2380.862 10702.9,2365.747L10702.9,2251.504L10675.481,2251.504L10675.481,2237.267L10703.076,2225.843L10714.676,2184.012L10732.252,2184.012L10732.252,2228.655L10788.67,2228.655L10788.67,2251.504L10732.252,2251.504L10732.252,2364.868C10732.252,2376.937 10735.035,2385.959 10740.6,2391.935C10746.166,2397.911 10753.577,2400.899 10762.834,2400.899Z" style="fill:#131d77;fill-rule:nonzero;"/>
            <path d="M10916.447,2225.14C10920.314,2225.14 10924.356,2225.345 10928.575,2225.755C10932.793,2226.165 10936.542,2226.722 10939.823,2227.425L10936.132,2254.492C10932.969,2253.671 10929.453,2253.027 10925.587,2252.558C10921.72,2252.089 10918.088,2251.855 10914.69,2251.855C10906.956,2251.855 10899.662,2253.408 10892.808,2256.513C10885.953,2259.618 10879.948,2264.07 10874.792,2269.87C10869.637,2275.67 10865.594,2282.642 10862.665,2290.786C10859.736,2298.929 10858.271,2307.981 10858.271,2317.941L10858.271,2421.287L10828.919,2421.287L10828.919,2228.655L10853.174,2228.655L10856.338,2264.158L10857.568,2264.158C10861.552,2257.011 10866.356,2250.478 10871.98,2244.561C10877.604,2238.644 10884.137,2233.928 10891.577,2230.413C10899.018,2226.897 10907.308,2225.14 10916.447,2225.14Z" style="fill:#131d77;fill-rule:nonzero;"/>
            <path d="M11135.092,2228.655L11135.092,2421.287L11111.188,2421.287L11106.97,2394.22L11105.388,2394.22C11101.404,2400.899 11096.249,2406.523 11089.922,2411.093C11083.594,2415.663 11076.476,2419.09 11068.567,2421.375C11060.658,2423.66 11052.251,2424.802 11043.345,2424.802C11028.113,2424.802 11015.341,2422.342 11005.03,2417.42C10994.719,2412.499 10986.956,2404.883 10981.742,2394.572C10976.528,2384.26 10973.921,2371.02 10973.921,2354.85L10973.921,2228.655L11003.448,2228.655L11003.448,2352.741C11003.448,2368.794 11007.08,2380.774 11014.345,2388.684C11021.61,2396.593 11032.683,2400.547 11047.564,2400.547C11061.859,2400.547 11073.254,2397.852 11081.749,2392.462C11090.244,2387.073 11096.366,2379.134 11100.116,2368.647C11103.865,2358.16 11105.74,2345.3 11105.74,2330.068L11105.74,2228.655L11135.092,2228.655Z" style="fill:#131d77;fill-rule:nonzero;"/>
            <path d="M11405.937,2225.14C11427.145,2225.14 11443.139,2230.676 11453.919,2241.749C11464.699,2252.822 11470.089,2270.603 11470.089,2295.092L11470.089,2421.287L11441.264,2421.287L11441.264,2296.498C11441.264,2280.914 11437.895,2269.226 11431.158,2261.434C11424.421,2253.642 11414.432,2249.746 11401.191,2249.746C11382.561,2249.746 11369.027,2255.136 11360.591,2265.916C11352.154,2276.696 11347.936,2292.573 11347.936,2313.547L11347.936,2421.287L11318.936,2421.287L11318.936,2296.498C11318.936,2286.07 11317.442,2277.399 11314.454,2270.486C11311.466,2263.572 11307.013,2258.388 11301.096,2254.931C11295.179,2251.474 11287.709,2249.746 11278.687,2249.746C11265.915,2249.746 11255.662,2252.382 11247.929,2257.655C11240.196,2262.928 11234.601,2270.749 11231.144,2281.119C11227.687,2291.489 11225.959,2304.231 11225.959,2319.347L11225.959,2421.287L11196.783,2421.287L11196.783,2228.655L11220.335,2228.655L11224.729,2255.898L11226.311,2255.898C11230.177,2249.219 11235.04,2243.594 11240.899,2239.025C11246.757,2234.455 11253.319,2230.998 11260.584,2228.655C11267.848,2226.311 11275.582,2225.14 11283.784,2225.14C11298.431,2225.14 11310.704,2227.864 11320.605,2233.313C11330.507,2238.761 11337.683,2247.051 11342.136,2258.182L11343.718,2258.182C11350.045,2247.051 11358.716,2238.761 11369.73,2233.313C11380.744,2227.864 11392.813,2225.14 11405.937,2225.14Z" style="fill:#131d77;fill-rule:nonzero;"/>
            <path d="M11665.884,2421.287L11592.769,2228.655L11624.054,2228.655L11666.412,2345.183C11669.341,2353.151 11672.329,2361.939 11675.375,2371.547C11678.422,2381.155 11680.531,2388.889 11681.703,2394.747L11682.933,2394.747C11684.339,2388.889 11686.682,2381.126 11689.963,2371.459C11693.244,2361.792 11696.232,2353.034 11698.927,2345.183L11741.285,2228.655L11772.57,2228.655L11699.279,2421.287L11665.884,2421.287Z" style="fill:#131d77;fill-rule:nonzero;"/>
            <path d="M11969.42,2324.619C11969.42,2340.438 11967.37,2354.557 11963.269,2366.977C11959.168,2379.398 11953.251,2389.885 11945.517,2398.438C11937.784,2406.992 11928.439,2413.524 11917.484,2418.035C11906.528,2422.547 11894.137,2424.802 11880.31,2424.802C11867.421,2424.802 11855.616,2422.547 11844.895,2418.035C11834.174,2413.524 11824.917,2406.992 11817.125,2398.438C11809.333,2389.885 11803.299,2379.398 11799.022,2366.977C11794.745,2354.557 11792.607,2340.438 11792.607,2324.619C11792.607,2303.528 11796.18,2285.572 11803.328,2270.749C11810.476,2255.927 11820.699,2244.62 11833.998,2236.828C11847.297,2229.036 11863.145,2225.14 11881.541,2225.14C11899.117,2225.14 11914.496,2229.065 11927.678,2236.916C11940.86,2244.766 11951.112,2256.103 11958.435,2270.925C11965.759,2285.747 11969.42,2303.645 11969.42,2324.619ZM11822.837,2324.619C11822.837,2340.086 11824.888,2353.503 11828.989,2364.868C11833.09,2376.234 11839.417,2385.022 11847.971,2391.232C11856.524,2397.442 11867.539,2400.547 11881.014,2400.547C11894.371,2400.547 11905.356,2397.442 11913.968,2391.232C11922.581,2385.022 11928.937,2376.234 11933.038,2364.868C11937.139,2353.503 11939.19,2340.086 11939.19,2324.619C11939.19,2309.27 11937.139,2296 11933.038,2284.81C11928.937,2273.62 11922.61,2264.978 11914.056,2258.885C11905.503,2252.793 11894.43,2249.746 11880.838,2249.746C11860.801,2249.746 11846.125,2256.366 11836.81,2269.607C11827.495,2282.847 11822.837,2301.185 11822.837,2324.619Z" style="fill:#131d77;fill-rule:nonzero;"/>
            <path d="M12185.956,2324.619C12185.956,2340.438 12183.905,2354.557 12179.804,2366.977C12175.703,2379.398 12169.786,2389.885 12162.052,2398.438C12154.319,2406.992 12144.974,2413.524 12134.019,2418.035C12123.063,2422.547 12110.672,2424.802 12096.846,2424.802C12083.957,2424.802 12072.152,2422.547 12061.43,2418.035C12050.709,2413.524 12041.452,2406.992 12033.66,2398.438C12025.868,2389.885 12019.834,2379.398 12015.557,2366.977C12011.28,2354.557 12009.142,2340.438 12009.142,2324.619C12009.142,2303.528 12012.716,2285.572 12019.863,2270.749C12027.011,2255.927 12037.234,2244.62 12050.533,2236.828C12063.832,2229.036 12079.68,2225.14 12098.076,2225.14C12115.652,2225.14 12131.031,2229.065 12144.213,2236.916C12157.395,2244.766 12167.647,2256.103 12174.971,2270.925C12182.294,2285.747 12185.956,2303.645 12185.956,2324.619ZM12039.373,2324.619C12039.373,2340.086 12041.423,2353.503 12045.524,2364.868C12049.625,2376.234 12055.952,2385.022 12064.506,2391.232C12073.06,2397.442 12084.074,2400.547 12097.549,2400.547C12110.907,2400.547 12121.891,2397.442 12130.504,2391.232C12139.116,2385.022 12145.472,2376.234 12149.574,2364.868C12153.675,2353.503 12155.725,2340.086 12155.725,2324.619C12155.725,2309.27 12153.675,2296 12149.574,2284.81C12145.472,2273.62 12139.145,2264.978 12130.592,2258.885C12122.038,2252.793 12110.965,2249.746 12097.373,2249.746C12077.337,2249.746 12062.661,2256.366 12053.345,2269.607C12044.03,2282.847 12039.373,2301.185 12039.373,2324.619Z" style="fill:#131d77;fill-rule:nonzero;"/>
            <path d="M12323.927,2225.14C12327.793,2225.14 12331.836,2225.345 12336.054,2225.755C12340.272,2226.165 12344.022,2226.722 12347.303,2227.425L12343.612,2254.492C12340.448,2253.671 12336.933,2253.027 12333.066,2252.558C12329.199,2252.089 12325.567,2251.855 12322.169,2251.855C12314.436,2251.855 12307.142,2253.408 12300.287,2256.513C12293.432,2259.618 12287.427,2264.07 12282.272,2269.87C12277.116,2275.67 12273.074,2282.642 12270.144,2290.786C12267.215,2298.929 12265.75,2307.981 12265.75,2317.941L12265.75,2421.287L12236.399,2421.287L12236.399,2228.655L12260.653,2228.655L12263.817,2264.158L12265.047,2264.158C12269.031,2257.011 12273.835,2250.478 12279.46,2244.561C12285.084,2238.644 12291.616,2233.928 12299.057,2230.413C12306.497,2226.897 12314.787,2225.14 12323.927,2225.14Z" style="fill:#131d77;fill-rule:nonzero;"/>
        </g>
        <g transform="matrix(1,0,0,1,-383.376275,-1089.126797)">
            <path d="M8124.865,2191.745C8111.624,2191.745 8099.76,2194.06 8089.273,2198.688C8078.786,2203.316 8069.911,2210.054 8062.646,2218.9C8055.381,2227.747 8049.815,2238.38 8045.949,2250.801C8042.082,2263.221 8040.149,2277.223 8040.149,2292.807C8040.149,2313.547 8043.224,2331.474 8049.376,2346.589C8055.528,2361.705 8064.814,2373.363 8077.234,2381.565C8089.654,2389.767 8105.297,2393.869 8124.162,2393.869C8135.41,2393.869 8146.161,2392.843 8156.413,2390.793C8166.666,2388.742 8176.889,2386.077 8187.083,2382.796L8187.083,2413.729C8177.241,2417.479 8167.076,2420.262 8156.589,2422.078C8146.102,2423.894 8133.828,2424.802 8119.768,2424.802C8093.521,2424.802 8071.697,2419.354 8054.297,2408.457C8036.897,2397.559 8023.92,2382.239 8015.367,2362.496C8006.813,2342.752 8002.536,2319.464 8002.536,2292.631C8002.536,2273.181 8005.231,2255.4 8010.621,2239.288C8016.011,2223.177 8023.92,2209.234 8034.349,2197.458C8044.777,2185.682 8057.578,2176.601 8072.752,2170.215C8087.926,2163.829 8105.414,2160.636 8125.216,2160.636C8138.105,2160.636 8150.672,2162.013 8162.916,2164.766C8175.161,2167.52 8186.439,2171.357 8196.75,2176.279L8183.392,2206.334C8174.839,2202.467 8165.67,2199.069 8155.886,2196.139C8146.102,2193.21 8135.762,2191.745 8124.865,2191.745Z" style="fill:#131d77;fill-rule:nonzero;"/>
            <path d="M8402.74,2227.6L8402.74,2421.287L8374.443,2421.287L8369.521,2394.747L8367.588,2394.747C8363.604,2401.426 8358.448,2406.992 8352.121,2411.444C8345.794,2415.897 8338.705,2419.236 8330.854,2421.463C8323.004,2423.689 8314.684,2424.802 8305.896,2424.802C8291.016,2424.802 8278.39,2422.342 8268.02,2417.42C8257.651,2412.499 8249.8,2404.853 8244.469,2394.484C8239.137,2384.114 8236.472,2370.727 8236.472,2354.323L8236.472,2227.6L8271.975,2227.6L8271.975,2349.401C8271.975,2364.985 8275.344,2376.644 8282.081,2384.378C8288.819,2392.111 8299.1,2395.978 8312.927,2395.978C8326.402,2395.978 8337.094,2393.312 8345.003,2387.981C8352.912,2382.649 8358.595,2374.857 8362.052,2364.605C8365.508,2354.352 8367.236,2341.785 8367.236,2326.904L8367.236,2227.6L8402.74,2227.6Z" style="fill:#131d77;fill-rule:nonzero;"/>
            <path d="M8556.178,2224.085C8559.693,2224.085 8563.501,2224.29 8567.602,2224.7C8571.703,2225.11 8575.218,2225.608 8578.147,2226.194L8574.456,2259.061C8571.644,2258.358 8568.393,2257.772 8564.702,2257.304C8561.011,2256.835 8557.584,2256.601 8554.42,2256.601C8546.921,2256.601 8539.773,2258.007 8532.977,2260.819C8526.181,2263.631 8520.205,2267.703 8515.05,2273.034C8509.894,2278.365 8505.852,2284.869 8502.923,2292.543C8499.993,2300.218 8498.529,2308.977 8498.529,2318.819L8498.529,2421.287L8463.025,2421.287L8463.025,2227.6L8491.498,2227.6L8495.716,2262.576L8497.298,2262.576C8501.282,2255.546 8506.115,2249.102 8511.798,2243.243C8517.481,2237.384 8524.043,2232.727 8531.483,2229.27C8538.924,2225.813 8547.155,2224.085 8556.178,2224.085Z" style="fill:#131d77;fill-rule:nonzero;"/>
            <path d="M8707.33,2224.085C8710.846,2224.085 8714.654,2224.29 8718.755,2224.7C8722.856,2225.11 8726.371,2225.608 8729.3,2226.194L8725.609,2259.061C8722.797,2258.358 8719.546,2257.772 8715.855,2257.304C8712.164,2256.835 8708.736,2256.601 8705.573,2256.601C8698.074,2256.601 8690.926,2258.007 8684.13,2260.819C8677.334,2263.631 8671.358,2267.703 8666.203,2273.034C8661.047,2278.365 8657.005,2284.869 8654.075,2292.543C8651.146,2300.218 8649.681,2308.977 8649.681,2318.819L8649.681,2421.287L8614.178,2421.287L8614.178,2227.6L8642.651,2227.6L8646.869,2262.576L8648.451,2262.576C8652.435,2255.546 8657.268,2249.102 8662.951,2243.243C8668.634,2237.384 8675.196,2232.727 8682.636,2229.27C8690.077,2225.813 8698.308,2224.085 8707.33,2224.085Z" style="fill:#131d77;fill-rule:nonzero;"/>
            <path d="M8800.659,2227.6L8800.659,2421.287L8765.331,2421.287L8765.331,2227.6L8800.659,2227.6ZM8783.258,2154.309C8788.883,2154.309 8793.716,2155.949 8797.758,2159.23C8801.801,2162.511 8803.822,2167.842 8803.822,2175.224C8803.822,2182.606 8801.801,2187.967 8797.758,2191.306C8793.716,2194.646 8788.883,2196.315 8783.258,2196.315C8777.517,2196.315 8772.684,2194.646 8768.758,2191.306C8764.833,2187.967 8762.87,2182.606 8762.87,2175.224C8762.87,2167.842 8764.833,2162.511 8768.758,2159.23C8772.684,2155.949 8777.517,2154.309 8783.258,2154.309Z" style="fill:#131d77;fill-rule:nonzero;"/>
            <path d="M8938.805,2424.802C8920.995,2424.802 8905.411,2421.228 8892.053,2414.081C8878.696,2406.933 8868.355,2396.007 8861.032,2381.302C8853.708,2366.597 8850.047,2347.995 8850.047,2325.498C8850.047,2302.064 8853.972,2282.877 8861.823,2267.937C8869.673,2252.998 8880.541,2241.954 8894.426,2234.806C8908.311,2227.659 8924.217,2224.085 8942.145,2224.085C8952.69,2224.085 8962.562,2225.14 8971.76,2227.249C8980.958,2229.358 8988.662,2231.994 8994.872,2235.158L8984.327,2263.807C8977.765,2261.229 8970.706,2258.944 8963.148,2256.952C8955.59,2254.96 8948.413,2253.964 8941.617,2253.964C8929.197,2253.964 8918.915,2256.689 8910.772,2262.137C8902.628,2267.586 8896.506,2275.583 8892.405,2286.128C8888.304,2296.674 8886.253,2309.68 8886.253,2325.147C8886.253,2340.145 8888.274,2352.829 8892.317,2363.199C8896.359,2373.568 8902.335,2381.448 8910.244,2386.838C8918.154,2392.228 8928.025,2394.923 8939.86,2394.923C8950.288,2394.923 8959.662,2393.751 8967.981,2391.408C8976.301,2389.064 8983.975,2386.077 8991.006,2382.444L8991.006,2413.554C8984.21,2417.303 8976.711,2420.115 8968.509,2421.99C8960.306,2423.865 8950.405,2424.802 8938.805,2424.802Z" style="fill:#131d77;fill-rule:nonzero;"/>
            <path d="M9201.038,2227.6L9201.038,2421.287L9172.741,2421.287L9167.819,2394.747L9165.886,2394.747C9161.902,2401.426 9156.747,2406.992 9150.419,2411.444C9144.092,2415.897 9137.003,2419.236 9129.152,2421.463C9121.302,2423.689 9112.983,2424.802 9104.195,2424.802C9089.314,2424.802 9076.688,2422.342 9066.318,2417.42C9055.949,2412.499 9048.098,2404.853 9042.767,2394.484C9037.435,2384.114 9034.77,2370.727 9034.77,2354.323L9034.77,2227.6L9070.273,2227.6L9070.273,2349.401C9070.273,2364.985 9073.642,2376.644 9080.379,2384.378C9087.117,2392.111 9097.399,2395.978 9111.225,2395.978C9124.7,2395.978 9135.392,2393.312 9143.301,2387.981C9151.21,2382.649 9156.893,2374.857 9160.35,2364.605C9163.806,2354.352 9165.535,2341.785 9165.535,2326.904L9165.535,2227.6L9201.038,2227.6Z" style="fill:#131d77;fill-rule:nonzero;"/>
            <rect x="9261.323" y="2147.806" width="35.503" height="273.481" style="fill:#131d77;fill-rule:nonzero;"/>
            <path d="M9521.447,2227.6L9521.447,2421.287L9493.15,2421.287L9488.228,2394.747L9486.295,2394.747C9482.311,2401.426 9477.156,2406.992 9470.828,2411.444C9464.501,2415.897 9457.412,2419.236 9449.561,2421.463C9441.711,2423.689 9433.391,2424.802 9424.604,2424.802C9409.723,2424.802 9397.097,2422.342 9386.727,2417.42C9376.358,2412.499 9368.507,2404.853 9363.176,2394.484C9357.844,2384.114 9355.179,2370.727 9355.179,2354.323L9355.179,2227.6L9390.682,2227.6L9390.682,2349.401C9390.682,2364.985 9394.051,2376.644 9400.788,2384.378C9407.526,2392.111 9417.808,2395.978 9431.634,2395.978C9445.109,2395.978 9455.801,2393.312 9463.71,2387.981C9471.619,2382.649 9477.302,2374.857 9480.759,2364.605C9484.215,2354.352 9485.943,2341.785 9485.943,2326.904L9485.943,2227.6L9521.447,2227.6Z" style="fill:#131d77;fill-rule:nonzero;"/>
            <path d="M9796.334,2224.085C9817.777,2224.085 9833.976,2229.68 9844.932,2240.87C9855.887,2252.06 9861.365,2269.958 9861.365,2294.565L9861.365,2421.287L9826.389,2421.287L9826.389,2298.959C9826.389,2283.726 9823.255,2272.302 9816.986,2264.686C9810.717,2257.069 9801.373,2253.261 9788.952,2253.261C9771.376,2253.261 9758.692,2258.563 9750.9,2269.167C9743.108,2279.772 9739.212,2295.326 9739.212,2315.831L9739.212,2421.287L9704.061,2421.287L9704.061,2298.959C9704.061,2288.765 9702.655,2280.299 9699.842,2273.561C9697.03,2266.824 9692.871,2261.756 9687.363,2258.358C9681.856,2254.96 9674.885,2253.261 9666.448,2253.261C9654.379,2253.261 9644.742,2255.868 9637.536,2261.082C9630.33,2266.297 9625.115,2274.001 9621.893,2284.195C9618.671,2294.389 9617.06,2306.868 9617.06,2321.632L9617.06,2421.287L9581.732,2421.287L9581.732,2227.6L9609.678,2227.6L9614.775,2254.316L9616.708,2254.316C9620.575,2247.637 9625.467,2242.071 9631.384,2237.619C9637.301,2233.166 9643.892,2229.797 9651.157,2227.512C9658.422,2225.228 9666.097,2224.085 9674.182,2224.085C9688.711,2224.085 9700.956,2226.722 9710.915,2231.994C9720.875,2237.267 9728.198,2245.293 9732.885,2256.073L9735.17,2256.073C9741.38,2245.176 9749.963,2237.121 9760.919,2231.906C9771.874,2226.692 9783.679,2224.085 9796.334,2224.085Z" style="fill:#131d77;fill-rule:nonzero;"/>
            <path d="M10047.846,2367.153C10047.846,2379.691 10044.77,2390.265 10038.618,2398.878C10032.467,2407.49 10023.532,2413.964 10011.815,2418.299C10000.098,2422.634 9986.037,2424.802 9969.633,2424.802C9956.041,2424.802 9944.323,2423.777 9934.481,2421.726C9924.638,2419.676 9915.733,2416.717 9907.765,2412.851L9907.765,2381.565C9916.319,2385.666 9926.22,2389.299 9937.469,2392.462C9948.717,2395.626 9959.732,2397.208 9970.511,2397.208C9985.627,2397.208 9996.553,2394.806 10003.291,2390.002C10010.028,2385.198 10013.397,2378.695 10013.397,2370.493C10013.397,2365.688 10012.049,2361.441 10009.354,2357.75C10006.659,2354.059 10001.943,2350.368 9995.206,2346.677C9988.468,2342.986 9978.831,2338.739 9966.293,2333.935C9953.99,2329.131 9943.474,2324.326 9934.744,2319.522C9926.015,2314.718 9919.366,2308.918 9914.796,2302.122C9910.226,2295.326 9907.941,2286.538 9907.941,2275.758C9907.941,2259.003 9914.649,2246.202 9928.066,2237.355C9941.482,2228.508 9959.204,2224.085 9981.233,2224.085C9992.95,2224.085 10003.994,2225.257 10014.363,2227.6C10024.733,2229.944 10034.664,2233.225 10044.155,2237.443L10032.73,2264.686C10024.294,2261.053 10015.623,2258.036 10006.718,2255.634C9997.813,2253.232 9988.732,2252.031 9979.475,2252.031C9967.406,2252.031 9958.179,2253.964 9951.793,2257.831C9945.407,2261.698 9942.214,2267.029 9942.214,2273.825C9942.214,2279.098 9943.708,2283.492 9946.696,2287.007C9949.684,2290.522 9954.693,2293.949 9961.724,2297.289C9968.754,2300.628 9978.245,2304.583 9990.197,2309.153C10002.031,2313.605 10012.254,2318.234 10020.866,2323.038C10029.479,2327.842 10036.128,2333.7 10040.815,2340.614C10045.502,2347.527 10047.846,2356.373 10047.846,2367.153Z" style="fill:#131d77;fill-rule:nonzero;"/>
            <path d="M10161.034,2396.153C10166.073,2396.153 10171.17,2395.714 10176.325,2394.835C10181.481,2393.956 10185.934,2392.814 10189.683,2391.408L10189.683,2418.475C10185.699,2420.232 10180.397,2421.726 10173.777,2422.957C10167.157,2424.187 10160.39,2424.802 10153.477,2424.802C10142.931,2424.802 10133.382,2422.986 10124.828,2419.354C10116.274,2415.721 10109.449,2409.511 10104.352,2400.723C10099.255,2391.935 10096.707,2379.749 10096.707,2364.165L10096.707,2254.843L10069.815,2254.843L10069.815,2238.497L10097.937,2225.491L10110.416,2183.661L10132.21,2183.661L10132.21,2227.6L10188.277,2227.6L10188.277,2254.843L10132.21,2254.843L10132.21,2363.638C10132.21,2374.535 10134.817,2382.679 10140.031,2388.068C10145.245,2393.458 10152.246,2396.153 10161.034,2396.153Z" style="fill:#131d77;fill-rule:nonzero;"/>
            <path d="M10393.388,2227.6L10393.388,2421.287L10365.091,2421.287L10360.17,2394.747L10358.236,2394.747C10354.252,2401.426 10349.097,2406.992 10342.769,2411.444C10336.442,2415.897 10329.353,2419.236 10321.503,2421.463C10313.652,2423.689 10305.333,2424.802 10296.545,2424.802C10281.664,2424.802 10269.038,2422.342 10258.669,2417.42C10248.299,2412.499 10240.448,2404.853 10235.117,2394.484C10229.786,2384.114 10227.12,2370.727 10227.12,2354.323L10227.12,2227.6L10262.623,2227.6L10262.623,2349.401C10262.623,2364.985 10265.992,2376.644 10272.729,2384.378C10279.467,2392.111 10289.749,2395.978 10303.575,2395.978C10317.05,2395.978 10327.742,2393.312 10335.651,2387.981C10343.56,2382.649 10349.243,2374.857 10352.7,2364.605C10356.156,2354.352 10357.885,2341.785 10357.885,2326.904L10357.885,2227.6L10393.388,2227.6Z" style="fill:#131d77;fill-rule:nonzero;"/>
            <path d="M10520.638,2424.802C10496.969,2424.802 10478.075,2416.424 10463.955,2399.669C10449.836,2382.913 10442.776,2358.072 10442.776,2325.147C10442.776,2291.87 10449.953,2266.707 10464.307,2249.658C10478.66,2232.61 10497.73,2224.085 10521.516,2224.085C10531.476,2224.085 10540.205,2225.433 10547.705,2228.128C10555.204,2230.823 10561.677,2234.396 10567.126,2238.849C10572.574,2243.302 10577.115,2248.34 10580.747,2253.964L10582.856,2253.964C10582.271,2250.332 10581.685,2245.235 10581.099,2238.673C10580.513,2232.112 10580.22,2226.37 10580.22,2221.449L10580.22,2147.806L10615.548,2147.806L10615.548,2421.287L10587.602,2421.287L10581.802,2394.396L10580.22,2394.396C10576.705,2400.02 10572.223,2405.146 10566.774,2409.775C10561.326,2414.403 10554.823,2418.065 10547.265,2420.76C10539.708,2423.455 10530.832,2424.802 10520.638,2424.802ZM10528.898,2395.978C10547.997,2395.978 10561.502,2390.471 10569.411,2379.456C10577.32,2368.442 10581.333,2352.096 10581.45,2330.419L10581.45,2324.971C10581.45,2301.888 10577.671,2284.166 10570.114,2271.804C10562.556,2259.442 10548.701,2253.261 10528.547,2253.261C10512.143,2253.261 10499.781,2259.676 10491.462,2272.507C10483.142,2285.337 10478.983,2303.118 10478.983,2325.85C10478.983,2348.347 10483.142,2365.659 10491.462,2377.787C10499.781,2389.914 10512.26,2395.978 10528.898,2395.978Z" style="fill:#131d77;fill-rule:nonzero;"/>
            <path d="M10711.161,2227.6L10711.161,2421.287L10675.833,2421.287L10675.833,2227.6L10711.161,2227.6ZM10693.76,2154.309C10699.385,2154.309 10704.218,2155.949 10708.261,2159.23C10712.303,2162.511 10714.324,2167.842 10714.324,2175.224C10714.324,2182.606 10712.303,2187.967 10708.261,2191.306C10704.218,2194.646 10699.385,2196.315 10693.76,2196.315C10688.019,2196.315 10683.186,2194.646 10679.26,2191.306C10675.335,2187.967 10673.372,2182.606 10673.372,2175.224C10673.372,2167.842 10675.335,2162.511 10679.26,2159.23C10683.186,2155.949 10688.019,2154.309 10693.76,2154.309Z" style="fill:#131d77;fill-rule:nonzero;"/>
            <path d="M10847.374,2224.085C10864.247,2224.085 10878.718,2227.688 10890.786,2234.894C10902.855,2242.1 10912.112,2252.265 10918.556,2265.389C10925.001,2278.512 10928.223,2293.979 10928.223,2311.789L10928.223,2331.826L10796.755,2331.826C10797.107,2352.565 10802.438,2368.471 10812.749,2379.544C10823.061,2390.617 10837.531,2396.153 10856.162,2396.153C10868.465,2396.153 10879.421,2394.982 10889.029,2392.638C10898.637,2390.295 10908.597,2386.838 10918.908,2382.268L10918.908,2411.972C10909.183,2416.424 10899.428,2419.676 10889.644,2421.726C10879.86,2423.777 10868.172,2424.802 10854.58,2424.802C10835.832,2424.802 10819.399,2421.053 10805.28,2413.554C10791.16,2406.054 10780.175,2394.952 10772.325,2380.247C10764.474,2365.542 10760.549,2347.41 10760.549,2325.85C10760.549,2304.524 10764.123,2286.275 10771.27,2271.101C10778.418,2255.927 10788.495,2244.297 10801.501,2236.213C10814.507,2228.128 10829.798,2224.085 10847.374,2224.085ZM10847.198,2251.504C10832.903,2251.504 10821.42,2256.161 10812.749,2265.476C10804.079,2274.792 10798.982,2288.12 10797.458,2305.462L10892.72,2305.462C10892.603,2294.799 10890.904,2285.425 10887.623,2277.34C10884.342,2269.255 10879.391,2262.928 10872.771,2258.358C10866.151,2253.788 10857.627,2251.504 10847.198,2251.504Z" style="fill:#131d77;fill-rule:nonzero;"/>
            <path d="M11103.982,2367.153C11103.982,2379.691 11100.907,2390.265 11094.755,2398.878C11088.603,2407.49 11079.669,2413.964 11067.952,2418.299C11056.234,2422.634 11042.174,2424.802 11025.769,2424.802C11012.177,2424.802 11000.46,2423.777 10990.618,2421.726C10980.775,2419.676 10971.87,2416.717 10963.902,2412.851L10963.902,2381.565C10972.456,2385.666 10982.357,2389.299 10993.606,2392.462C11004.854,2395.626 11015.868,2397.208 11026.648,2397.208C11041.764,2397.208 11052.69,2394.806 11059.427,2390.002C11066.165,2385.198 11069.533,2378.695 11069.533,2370.493C11069.533,2365.688 11068.186,2361.441 11065.491,2357.75C11062.796,2354.059 11058.08,2350.368 11051.342,2346.677C11044.605,2342.986 11034.968,2338.739 11022.43,2333.935C11010.127,2329.131 10999.611,2324.326 10990.881,2319.522C10982.152,2314.718 10975.502,2308.918 10970.933,2302.122C10966.363,2295.326 10964.078,2286.538 10964.078,2275.758C10964.078,2259.003 10970.786,2246.202 10984.202,2237.355C10997.619,2228.508 11015.341,2224.085 11037.37,2224.085C11049.087,2224.085 11060.13,2225.257 11070.5,2227.6C11080.87,2229.944 11090.8,2233.225 11100.291,2237.443L11088.867,2264.686C11080.431,2261.053 11071.76,2258.036 11062.855,2255.634C11053.95,2253.232 11044.869,2252.031 11035.612,2252.031C11023.543,2252.031 11014.316,2253.964 11007.93,2257.831C11001.544,2261.698 10998.351,2267.029 10998.351,2273.825C10998.351,2279.098 10999.845,2283.492 11002.833,2287.007C11005.821,2290.522 11010.83,2293.949 11017.86,2297.289C11024.891,2300.628 11034.382,2304.583 11046.333,2309.153C11058.168,2313.605 11068.391,2318.234 11077.003,2323.038C11085.615,2327.842 11092.265,2333.7 11096.952,2340.614C11101.639,2347.527 11103.982,2356.373 11103.982,2367.153Z" style="fill:#131d77;fill-rule:nonzero;"/>
        </g>
        <g transform="matrix(1.007979,0,0,1.008909,6322.328847,-1027.686588)">
            <rect x="194" y="1448.961" width="898" height="66.078" style="fill:#420000;"/>
        </g>
    </g>
</svg>
