<?xml version="1.0" encoding="UTF-8" standalone="no"?>
<!DOCTYPE svg PUBLIC "-//W3C//DTD SVG 1.1//EN" "http://www.w3.org/Graphics/SVG/1.1/DTD/svg11.dtd">
<svg width="100%" height="100%" viewBox="0 0 895 1303" version="1.1" xmlns="http://www.w3.org/2000/svg" xmlns:xlink="http://www.w3.org/1999/xlink" xml:space="preserve" xmlns:serif="http://www.serif.com/" style="fill-rule:evenodd;clip-rule:evenodd;stroke-linejoin:round;stroke-miterlimit:2;">
    <g transform="matrix(1,0,0,1,-910.888726,-141.05143)">
        <g id="logo_tight" transform="matrix(0.194998,0,0,0.829945,-323.765599,-92.887847)">
            <rect x="6331.624" y="281.873" width="4587.86" height="1569.67" style="fill:none;"/>
            <clipPath id="_clip1">
                <rect x="6331.624" y="281.873" width="4587.86" height="1569.67"/>
            </clipPath>
            <g clip-path="url(#_clip1)">
                <g transform="matrix(5.128256,0,0,1.204899,3580.056867,-218.517788)">
                    <path d="M1436.333,548.667L1436.333,582L1436.333,1146C1436.333,1299.254 1365.037,1421.574 1278.699,1512.85C1152.164,1646.62 993.936,1712.676 993.936,1712.676L981.111,1718.039L968.276,1712.701C968.276,1712.701 813.616,1648.507 689.925,1516.08C605.668,1425.872 533.008,1304.484 532.973,1151.229C532.923,936.632 531.669,582.4 531.669,582.4L531.264,548.667L1436.333,548.667ZM965.333,1637.714C971.47,1640.799 976.761,1643.351 981.061,1645.371C985.795,1643.147 991.725,1640.283 998.667,1636.778L998.667,1579.329C1042.971,1567.317 1087.11,1553.774 1130.808,1538.799C1123.026,1531.626 1113.919,1522.876 1104,1512.678C1069.104,1524.325 1033.944,1535.04 998.667,1544.772L998.667,1455.439C1013.834,1451.296 1028.975,1446.92 1044.071,1442.32C1037.296,1433.163 1030.571,1423.563 1024.012,1413.548C1015.575,1416.057 1007.126,1418.494 998.667,1420.857L998.667,1370.867C985.562,1346.287 974.033,1319.864 965.333,1291.918L965.333,1292.414C916.3,1278.433 867.746,1260.874 821.041,1240.24L886.74,1159.306C906.766,1168.301 927.444,1176.254 948.403,1183.03C948.391,1174.018 948.352,1161.689 948.296,1147.854C930.159,1141.606 912.299,1134.433 894.989,1126.435C877.802,1101.373 862.445,1074.582 849.505,1047.085L849.678,1045.333L602.355,1045.333C602.404,1056.089 602.448,1066.72 602.486,1077.187L674.715,1077.187L675.406,1078.686C702.479,1137.428 735.077,1194.689 771.795,1248.017L713.944,1319.285C672.695,1258.617 635.243,1194.44 602.619,1128.554C602.631,1136.259 602.637,1143.819 602.639,1151.214C602.644,1170.62 603.944,1189.434 606.388,1207.659C632.67,1255.318 661.349,1301.757 692.029,1346.283L667.156,1376.924C673.238,1386.989 679.63,1396.767 686.277,1406.258L718.688,1366.331C798.002,1402.764 881.265,1433.201 965.333,1456.486L965.333,1545.986C887.496,1524.192 810.237,1497.591 735.1,1466.749C736.279,1468.031 737.46,1469.306 738.645,1470.574C757.832,1491.116 777.827,1509.874 797.809,1526.864C853.007,1547.114 909.036,1565.089 965.333,1580.579L965.333,1637.714ZM740.392,1339.593L799.292,1267.033C852.816,1291.195 908.82,1311.436 965.333,1327.034L965.333,1421.87C888.746,1400.173 812.938,1372.443 740.392,1339.593ZM711.515,1077.187L827.123,1077.187C837.551,1097.736 849.224,1117.804 861.916,1136.997L793.722,1221.006C762.898,1175.363 735.191,1126.892 711.515,1077.187ZM1192.23,1504.307C1205.098,1492.59 1217.847,1480.167 1230.266,1467.037C1305.947,1387.029 1369.666,1280.336 1369.667,1146L1369.667,1045.333L1014.455,1045.333C1014.657,1081.66 1015.042,1154.129 1015.072,1184.459C1015.236,1350.969 1161.069,1478.876 1192.23,1504.307ZM947.167,615.333L598.72,615.333C599.46,681.234 601.082,833.368 601.99,978.667L947.167,978.667L947.167,615.333ZM1369.667,978.667L1369.667,615.333L1013.833,615.333L1013.833,978.667L1369.667,978.667Z" style="fill:#fff;"/>
                </g>
                <g transform="matrix(6.153134,0,0,1.445697,3168.033813,509.330174)">
                    <path d="M731.342,79.551C721.088,79.551 711.933,81.407 703.876,85.118C695.819,88.828 689.008,94.175 683.441,101.158C677.875,108.14 673.627,116.587 670.697,126.499C667.768,136.411 666.303,147.569 666.303,159.971C666.303,176.573 668.646,190.855 673.334,202.818C678.021,214.781 685.15,223.96 694.721,230.357C704.291,236.753 716.4,239.951 731.049,239.951C740.131,239.951 748.969,239.073 757.563,237.315C766.156,235.557 775.043,233.164 784.223,230.137L784.223,260.02C775.531,263.438 766.742,265.928 757.855,267.491C748.969,269.053 738.715,269.834 727.094,269.834C705.219,269.834 687.079,265.293 672.675,256.211C658.271,247.129 647.528,234.336 640.448,217.832C633.368,201.328 629.828,181.993 629.828,159.825C629.828,143.614 632.074,128.77 636.566,115.293C641.059,101.817 647.602,90.171 656.195,80.357C664.789,70.542 675.409,62.974 688.056,57.652C700.702,52.329 715.18,49.668 731.488,49.668C742.23,49.668 752.802,50.865 763.202,53.257C773.603,55.65 783.246,59.043 792.133,63.438L779.828,92.442C772.406,88.926 764.643,85.899 756.537,83.36C748.432,80.821 740.033,79.551 731.342,79.551Z" style="fill:#fff;fill-rule:nonzero;"/>
                </g>
                <g transform="matrix(6.153134,0,0,1.445697,5327.029683,505.715477)">
                    <path d="M731.342,79.551C721.088,79.551 711.933,81.407 703.876,85.118C695.819,88.828 689.008,94.175 683.441,101.158C677.875,108.14 673.627,116.587 670.697,126.499C667.768,136.411 666.303,147.569 666.303,159.971C666.303,176.573 668.646,190.855 673.334,202.818C678.021,214.781 685.15,223.96 694.721,230.357C704.291,236.753 716.4,239.951 731.049,239.951C740.131,239.951 748.969,239.073 757.563,237.315C766.156,235.557 775.043,233.164 784.223,230.137L784.223,260.02C775.531,263.438 766.742,265.928 757.855,267.491C748.969,269.053 738.715,269.834 727.094,269.834C705.219,269.834 687.079,265.293 672.675,256.211C658.271,247.129 647.528,234.336 640.448,217.832C633.368,201.328 629.828,181.993 629.828,159.825C629.828,143.614 632.074,128.77 636.566,115.293C641.059,101.817 647.602,90.171 656.195,80.357C664.789,70.542 675.409,62.974 688.056,57.652C700.702,52.329 715.18,49.668 731.488,49.668C742.23,49.668 752.802,50.865 763.202,53.257C773.603,55.65 783.246,59.043 792.133,63.438L779.828,92.442C772.406,88.926 764.643,85.899 756.537,83.36C748.432,80.821 740.033,79.551 731.342,79.551Z" style="fill:#fff;fill-rule:nonzero;"/>
                </g>
                <g transform="matrix(6.153134,0,0,1.445697,5434.723063,1029.846546)">
                    <path d="M763.715,208.604C763.715,221.299 760.614,232.237 754.413,241.416C748.212,250.596 739.325,257.627 727.753,262.51C716.181,267.393 702.387,269.834 686.371,269.834C678.559,269.834 671.088,269.395 663.959,268.516C656.83,267.637 650.116,266.343 643.817,264.634C637.519,262.925 631.781,260.85 626.605,258.409L626.605,225.303C635.297,229.112 645.014,232.554 655.756,235.63C666.498,238.706 677.436,240.244 688.568,240.244C697.65,240.244 705.194,239.048 711.2,236.656C717.206,234.263 721.674,230.845 724.604,226.402C727.533,221.958 728.998,216.758 728.998,210.801C728.998,204.453 727.289,199.082 723.871,194.688C720.453,190.293 715.302,186.265 708.417,182.603C701.532,178.941 692.914,175.01 682.563,170.811C675.531,167.979 668.817,164.756 662.421,161.143C656.024,157.53 650.336,153.282 645.355,148.399C640.375,143.516 636.444,137.73 633.563,131.04C630.683,124.351 629.242,116.465 629.242,107.383C629.242,95.274 632.147,84.922 637.958,76.328C643.769,67.735 651.972,61.143 662.567,56.553C673.163,51.963 685.541,49.668 699.701,49.668C710.932,49.668 721.503,50.84 731.415,53.184C741.327,55.528 751.068,58.848 760.639,63.145L749.506,91.416C740.717,87.803 732.196,84.922 723.944,82.774C715.692,80.625 707.27,79.551 698.676,79.551C691.254,79.551 684.955,80.674 679.779,82.92C674.604,85.166 670.673,88.316 667.987,92.368C665.302,96.421 663.959,101.231 663.959,106.797C663.959,113.047 665.497,118.296 668.573,122.544C671.649,126.792 676.435,130.674 682.929,134.19C689.423,137.705 697.797,141.612 708.051,145.909C719.867,150.791 729.901,155.918 738.153,161.289C746.405,166.66 752.729,173.081 757.123,180.552C761.518,188.023 763.715,197.373 763.715,208.604Z" style="fill:#fff;fill-rule:nonzero;"/>
                </g>
                <g transform="matrix(5.169175,0,0,1.215633,5301.638745,-1479.516641)">
                    <rect x="194" y="1448.961" width="898" height="66.078" style="fill:#fff;"/>
                </g>
            </g>
        </g>
    </g>
</svg>
